<?xml version="1.0" encoding="UTF-8" standalone="no"?>
<!-- Created with Inkscape (http://www.inkscape.org/) -->

<svg
   xmlns:dc="http://purl.org/dc/elements/1.1/"
   xmlns:cc="http://creativecommons.org/ns#"
   xmlns:rdf="http://www.w3.org/1999/02/22-rdf-syntax-ns#"
   xmlns:svg="http://www.w3.org/2000/svg"
   xmlns="http://www.w3.org/2000/svg"
   xmlns:sodipodi="http://sodipodi.sourceforge.net/DTD/sodipodi-0.dtd"
   xmlns:inkscape="http://www.inkscape.org/namespaces/inkscape"
   width="210mm"
   height="297mm"
   viewBox="0 0 210 297"
   version="1.1"
   id="svg8831"
   inkscape:version="0.92.2 (unknown)"
   sodipodi:docname="Magi.svg">
  <defs
     id="defs8825">
    <meshgradient
       inkscape:collect="always"
       id="meshgradient11568"
       gradientUnits="userSpaceOnUse"
       x="57.471218"
       y="53.576">
      <meshrow
         id="meshrow11624">
        <meshpatch
           id="meshpatch11626">
          <stop
             path="c -1.17599,137.943  95.469,142.478  94.293,0"
             style="stop-color:#ffffff;stop-opacity:1"
             id="stop11628" />
          <stop
             path="c 26.0383,52.9354  26.0383,138.761  0,191.696"
             style="stop-color:#000080;stop-opacity:1"
             id="stop11630" />
          <stop
             path="c -26.0383,52.9354  -68.2547,52.9354  -94.293,0"
             style="stop-color:#ffffff;stop-opacity:1"
             id="stop11632" />
          <stop
             path="c -26.0383,-52.9354  -26.0383,-138.761  0,-191.696"
             style="stop-color:#000080;stop-opacity:1"
             id="stop11634" />
        </meshpatch>
      </meshrow>
    </meshgradient>
  </defs>
  <sodipodi:namedview
     id="base"
     pagecolor="#ffffff"
     bordercolor="#666666"
     borderopacity="1.0"
     inkscape:pageopacity="0.0"
     inkscape:pageshadow="2"
     inkscape:zoom="0.7"
     inkscape:cx="429.26684"
     inkscape:cy="452.93162"
     inkscape:document-units="mm"
     inkscape:current-layer="layer1"
     showgrid="false"
     inkscape:window-width="1680"
     inkscape:window-height="991"
     inkscape:window-x="0"
     inkscape:window-y="0"
     inkscape:window-maximized="1" />
  <metadata
     id="metadata8828">
    <rdf:RDF>
      <cc:Work
         rdf:about="">
        <dc:format>image/svg+xml</dc:format>
        <dc:type
           rdf:resource="http://purl.org/dc/dcmitype/StillImage" />
        <dc:title></dc:title>
      </cc:Work>
    </rdf:RDF>
  </metadata>
  <g
     inkscape:label="Layer 1"
     inkscape:groupmode="layer"
     id="layer1"
     style="display:inline">
    <ellipse
       style="opacity:1;fill:url(#meshgradient11568);fill-opacity:1;stroke:#ff2aff;stroke-width:0.26458332;stroke-opacity:1"
       id="path9376"
       cx="104.61771"
       cy="149.42395"
       rx="66.675201"
       ry="135.54947" />
    <path
       style="opacity:1;fill:#0000ff;fill-opacity:1;stroke:#ff2aff;stroke-width:1;stroke-opacity:1"
       d="m 375.91854,1074.1302 c -0.97727,-0.6206 -2.36026,-3.9858 -3.07327,-7.4781 -5.75062,-28.1663 -14.28934,-59.8851 -21.32254,-79.20689 -7.61905,-20.93126 -9.14615,-24.26383 -12.56999,-27.43148 -1.8701,-1.73017 -3.40019,-4.71497 -3.40019,-6.63288 0,-1.9179 -0.96428,-3.85713 -2.14285,-4.3094 -1.17857,-0.45226 -2.14286,-2.12817 -2.14286,-3.72427 0,-1.59609 -0.90779,-2.90197 -2.01729,-2.90197 -1.24597,0 -2.39285,-2.22292 -2.99951,-5.81376 -0.54023,-3.19756 -1.88246,-6.1592 -2.98271,-6.58142 -1.10028,-0.42221 -2.00049,-1.68334 -2.00049,-2.8025 0,-1.11917 -0.96429,-2.40488 -2.14286,-2.85714 -1.17857,-0.45227 -2.14285,-2.31474 -2.14285,-4.13884 0,-1.8241 -0.96429,-4.28083 -2.14286,-5.4594 -1.17857,-1.17857 -2.14286,-2.80902 -2.14286,-3.62322 0,-0.81418 -1.28571,-2.16844 -2.85714,-3.00944 -1.57143,-0.841 -2.85714,-2.81237 -2.85714,-4.38081 0,-1.56845 -0.96429,-3.22175 -2.14286,-3.674 -1.17857,-0.45227 -2.14286,-1.56317 -2.14286,-2.46867 0,-0.90552 -1.28571,-2.44933 -2.85714,-3.4307 -1.57143,-0.98138 -2.85714,-2.67516 -2.85714,-3.76399 0,-1.08881 -1.89565,-4.00896 -4.21253,-6.4892 -2.3169,-2.48024 -4.61022,-5.76251 -5.09627,-7.29394 -0.48606,-1.53142 -1.48328,-2.7844 -2.21605,-2.7844 -0.73275,0 -1.3323,-0.98446 -1.3323,-2.18769 0,-1.20324 -0.96428,-2.55773 -2.14285,-3.00998 -1.17858,-0.45228 -2.14286,-1.7178 -2.14286,-2.81232 0,-1.0945 -0.65877,-1.99001 -1.46393,-1.99001 -0.80516,0 -2.08123,-1.62362 -2.8357,-3.60805 -0.75448,-1.98441 -2.34571,-3.98175 -3.53607,-4.43854 -1.19037,-0.45678 -2.1643,-1.72603 -2.1643,-2.82054 0,-1.0945 -0.64286,-1.99002 -1.42857,-1.99002 -0.78572,0 -1.42857,-0.91071 -1.42857,-2.02381 0,-1.11309 -0.48215,-2.23809 -1.07143,-2.5 -0.58929,-0.2619 -3.74707,-4.07019 -7.01729,-8.46286 -3.27023,-4.39268 -6.80594,-8.89337 -7.85715,-10.00154 -1.74993,-1.84476 -22.8716,-32.64943 -26.1934,-38.2015 -0.78375,-1.30994 -2.75964,-4.31029 -4.39088,-6.66743 -1.63125,-2.35714 -3.42593,-5.25 -3.98819,-6.42857 -0.56226,-1.17857 -1.80706,-3.42857 -2.76621,-5 -16.57823,-27.1609 -39.661,-75.37653 -50.34652,-105.16455 -13.57412,-37.84057 -16.57816,-48.96119 -17.94983,-66.44831 -0.74752,-9.52992 -1.17976,-26.24421 -0.96054,-37.14285 l 0.39858,-19.81572 4.012,12.85714 c 2.20661,7.07143 4.58701,14.14286 5.28979,15.71429 0.70278,1.57143 1.87354,5.10714 2.60169,7.85714 1.22739,4.63544 7.56906,21.13654 12.62759,32.85715 4.58933,10.63347 19.29089,39.8505 20.26388,40.27128 0.5634,0.24365 2.81588,4.13943 5.0055,8.65729 2.18961,4.51785 4.57669,8.21428 5.30462,8.21428 0.72792,0 1.3235,0.96429 1.3235,2.14286 0,1.17857 0.64286,2.14286 1.42857,2.14286 0.78572,0 1.42857,0.98445 1.42857,2.18768 0,1.20325 0.96429,2.55773 2.14286,3.00999 1.17857,0.45227 2.14286,1.7178 2.14286,2.81231 0,1.0945 0.64285,1.99002 1.42857,1.99002 0.78571,0 1.42857,0.89551 1.42857,1.99001 0,1.09452 0.96429,2.36004 2.14286,2.81232 1.17857,0.45225 2.14285,1.80674 2.14285,3.00998 0,1.20323 0.80736,2.18769 1.79413,2.18769 0.98677,0 2.6478,1.92857 3.69117,4.28571 1.04337,2.35714 2.80744,4.28572 3.92016,4.28572 1.11271,0 2.02312,0.96428 2.02312,2.14285 0,1.17857 0.96428,2.14286 2.14285,2.14286 1.17857,0 2.14286,0.96429 2.14286,2.14286 0,1.17857 0.68878,2.14285 1.53061,2.14285 1.97783,0 5.61225,3.63442 5.61225,5.61225 0,0.84184 0.8955,1.53061 1.99001,1.53061 1.09451,0 2.37569,1.00503 2.84706,2.2334 0.47137,1.22837 1.50443,1.83329 2.29569,1.34427 0.79127,-0.48903 1.43867,0.0929 1.43867,1.29319 0,1.35293 0.81439,1.86981 2.14285,1.36004 1.34601,-0.51651 2.14286,0.0147 2.14286,1.42857 0,1.41385 0.79685,1.94507 2.14286,1.42857 1.39111,-0.53382 2.14285,0.0367 2.14285,1.62625 0,1.58955 0.75175,2.16007 2.14286,1.62624 1.17857,-0.45226 2.14286,-0.1996 2.14286,0.56144 0,0.76106 0.96428,1.38375 2.14286,1.38375 1.17857,0 2.14285,0.71162 2.14285,1.58141 0,0.86977 0.96429,1.21139 2.14286,0.75911 1.29221,-0.49585 2.14286,-0.007 2.14286,1.2309 0,1.23815 0.85064,1.72676 2.14285,1.2309 1.17858,-0.45227 2.14286,-0.13085 2.14286,0.71429 0,0.84511 0.96429,1.16654 2.14286,0.71429 1.17857,-0.45228 2.14286,-0.13086 2.14286,0.71428 0,0.84512 0.96428,1.16654 2.14285,0.71429 1.17857,-0.45227 2.14286,-0.13086 2.14286,0.71428 0,0.84512 0.96429,1.16655 2.14286,0.71429 1.18867,-0.45614 2.14285,-0.0403 2.14285,0.93404 0,1.34509 0.46922,1.36692 2.00393,0.0933 1.53882,-1.2771 2.17673,-1.2348 2.74839,0.18221 0.56184,1.39269 1.03907,1.4325 1.94548,0.16232 1.40573,-1.96986 6.40702,-1.80925 7.92319,0.25445 0.63423,0.86327 1.0582,0.66147 1.07143,-0.50998 0.0114,-1.0662 0.90783,-1.59859 1.99064,-1.18306 1.08283,0.41551 2.68997,0.0343 3.57143,-0.84716 1.1845,-1.1845 1.60266,-1.08413 1.60266,0.38467 0,1.34062 0.68254,1.08493 2.09743,-0.78571 1.15357,-1.52517 2.11785,-2.19127 2.14285,-1.4802 0.025,0.71106 1.33115,0.12929 2.90257,-1.29284 1.57143,-1.42213 2.85715,-2.04175 2.85715,-1.37695 0,0.66482 0.94384,-0.0391 2.09743,-1.5643 1.15357,-1.52517 2.11785,-2.26872 2.14285,-1.65235 0.0669,1.65011 8.61686,-7.39055 8.61686,-9.1114 0,-0.80499 0.64286,-1.06632 1.42857,-0.58072 0.78572,0.4856 1.42857,-0.0874 1.42857,-1.27327 0,-1.1859 0.80357,-2.67027 1.78572,-3.2986 0.98214,-0.62833 4.3481,-6.06876 7.4799,-12.08986 3.1318,-6.02108 6.04984,-10.72761 6.48454,-10.45895 0.4347,0.26865 1.63307,-3.16213 2.66306,-7.62399 1.02997,-4.46186 2.36738,-8.75533 2.97203,-9.54104 0.60464,-0.78572 1.56212,-4 2.12775,-7.14286 0.56562,-3.14286 1.53296,-6.35714 2.14965,-7.14286 0.6167,-0.78571 1.4839,-3.35714 1.92712,-5.71428 0.44323,-2.35714 1.42292,-6.85714 2.17708,-10 0.75417,-3.14286 3.34632,-15.9276 5.76034,-28.41054 2.41403,-12.48294 4.64168,-22.94881 4.95036,-23.25748 0.30867,-0.30868 5.24571,0.16559 10.97118,1.05393 10.07973,1.56393 24.31844,0.91432 32.70987,-1.49231 l 4.00297,-1.14804 3.979,17.34151 c 4.14768,18.07664 9.96652,38.65705 11.97149,42.3415 0.64134,1.17857 2.0286,5.51786 3.0828,9.64286 1.05419,4.125 2.43804,7.5 3.07521,7.5 0.63718,0 1.1585,1.2398 1.1585,2.7551 0,1.51531 0.80358,3.62945 1.78572,4.6981 3.07843,3.34957 5.35714,8.10643 5.35714,11.18315 0,1.62846 0.60839,2.58483 1.35196,2.12529 0.74357,-0.45956 2.83286,1.33224 4.64286,3.98179 7.62421,11.16064 23.11188,24.68994 29.38237,25.66707 1.36397,0.21254 3.28353,0.88793 4.26567,1.50085 1.085,0.67712 1.7943,0.38062 1.80758,-0.75561 0.0172,-1.46783 0.29008,-1.4466 1.26886,0.0987 0.68584,1.0828 1.9617,1.527 2.83527,0.98712 0.87356,-0.53989 2.38056,-0.49197 3.34889,0.10643 2.27824,1.40804 6.81083,1.74078 6.81083,0.50001 0,-0.5281 1.92857,-0.84544 4.28571,-0.70521 2.35714,0.14028 4.28572,-0.35333 4.28572,-1.09679 0,-0.74347 0.96428,-0.98173 2.14285,-0.52946 1.17857,0.45226 2.14286,0.28316 2.14286,-0.37578 0,-0.65894 2.89286,-2.00803 6.42857,-2.99797 3.53572,-0.98995 6.42857,-2.3592 6.42857,-3.0428 0,-0.6836 0.96429,-1.24292 2.14286,-1.24292 1.17857,0 2.14286,-0.64285 2.14286,-1.42857 0,-0.78571 0.96428,-1.42857 2.14285,-1.42857 1.17858,0 2.14286,-0.64286 2.14286,-1.42857 0,-0.78572 0.82237,-1.42857 1.82749,-1.42857 1.00511,0 2.75417,-1.28572 3.8868,-2.85715 1.13263,-1.57142 2.88168,-2.85714 3.8868,-2.85714 1.00511,0 1.82748,-0.64286 1.82748,-1.42857 0,-0.78571 0.96429,-1.42857 2.14286,-1.42857 1.17857,0 2.14286,-0.96429 2.14286,-2.14286 0,-1.17857 0.96428,-2.14286 2.14285,-2.14286 1.17858,0 2.14286,-0.96428 2.14286,-2.14285 0,-1.17857 0.68877,-2.14286 1.53062,-2.14286 1.53385,0 5.61224,-3.47113 5.61224,-4.7766 0,-0.71097 4.45571,-6.24414 8.92857,-11.08766 1.375,-1.48894 2.5,-3.28125 2.5,-3.9829 0,-0.70165 0.96429,-1.64576 2.14286,-2.09802 1.17857,-0.45226 2.14285,-1.80675 2.14285,-3.00998 0,-1.20325 0.64286,-2.18771 1.42858,-2.18771 0.78571,0 1.42857,-0.71744 1.42857,-1.59432 0,-0.87688 2.08928,-4.5733 4.64285,-8.21429 2.55358,-3.64098 5.42542,-7.90568 6.38189,-9.47711 2.81074,-4.61792 14.68954,-28.99821 14.68954,-30.14911 0,-0.57997 0.86282,-2.06939 1.91737,-3.30983 3.59419,-4.22774 19.97839,-49.44578 25.92203,-71.54106 1.37383,-5.10714 2.69266,-9.92857 2.93075,-10.71428 0.75991,-2.5079 1.21511,27.84878 0.73904,49.28571 -0.43706,19.67992 -0.7655,21.71299 -6.57732,40.71429 -13.61608,44.51679 -31.46532,87.33793 -50.61541,121.42857 -8.62809,15.35959 -15.10479,26.12693 -18.1265,30.13484 -1.83304,2.43132 -3.33281,4.8176 -3.33281,5.30286 0,1.59014 -23.85712,35.17211 -26.1925,36.86931 -0.66482,0.48315 -1.95419,2.15755 -2.86528,3.72088 -1.96814,3.37715 -14.87861,19.85097 -18.44222,23.53235 -1.375,1.42043 -2.5,2.90405 -2.5,3.2969 0,0.39286 -1.125,1.86875 -2.5,3.27976 -1.375,1.41101 -5.39286,6.00861 -8.92858,10.21689 -3.53571,4.20828 -7.55357,8.83952 -8.92857,10.29167 -1.375,1.45214 -2.5,3.28311 -2.5,4.06883 0,0.78571 -0.66303,1.42857 -1.4734,1.42857 -0.81038,0 -1.88627,1.07588 -2.39087,2.39087 -0.83633,2.17943 -2.0939,3.77474 -8.3449,10.58611 -1.1421,1.24449 -2.07654,3.01235 -2.07654,3.92857 0,0.91623 -0.60779,1.66588 -1.35062,1.66588 -1.32562,0 -4.84194,5.4719 -6.62522,10.30982 -0.49725,1.34899 -2.12038,2.83873 -3.60698,3.31056 -1.68807,0.53577 -2.7029,2.17947 -2.7029,4.37786 0,1.936 -0.96428,3.89003 -2.14285,4.34228 -1.17857,0.45228 -2.14286,1.97046 -2.14286,3.37376 0,1.4033 -0.92881,2.90789 -2.06404,3.3435 -1.13522,0.43563 -2.48413,3.03132 -2.99756,5.76817 -0.51344,2.73687 -1.83463,5.32192 -2.93597,5.74455 -1.10133,0.42261 -2.00243,2.00551 -2.00243,3.51754 0,1.51201 -0.8742,3.0846 -1.94267,3.4946 -1.08574,0.41664 -2.3717,3.97956 -2.91526,8.07713 -0.58234,4.38988 -1.80906,7.65263 -3.05733,8.13163 -1.1466,0.44 -2.08474,1.8623 -2.08474,3.16065 0,1.29837 -1.17007,3.09139 -2.60016,3.98449 -3.83484,2.3949 -11.55077,27.71247 -18.8713,61.92055 -3.29923,15.4171 -4.28627,20.7319 -6.9948,37.6648 -0.86283,5.3942 -1.92027,10.3764 -2.34985,11.0714 -0.96668,1.5641 -32.0835,1.6467 -34.53219,0.092 z"
       id="path11638"
       inkscape:connector-curvature="0"
       transform="scale(0.26458333)" />
    <path
       sodipodi:type="star"
       style="opacity:1;fill:#ff0000;fill-opacity:1;stroke:#ff2aff;stroke-width:0.26458332;stroke-opacity:1"
       id="path11686"
       sodipodi:sides="4"
       sodipodi:cx="103.94345"
       sodipodi:cy="61.898808"
       sodipodi:r1="47.681961"
       sodipodi:r2="47.026564"
       sodipodi:arg1="-3.0064219"
       sodipodi:arg2="-0.17847482"
       inkscape:flatsided="false"
       inkscape:rounded="0"
       inkscape:randomized="0"
       d="M 56.696429,55.47321 150.22303,53.550237 110.36905,14.651785 112.29202,108.17838 151.19047,68.324405 57.663874,70.247379 97.517853,109.14583 95.59488,15.619231 Z" />
    <path
       style="opacity:1;fill:#ff0000;fill-opacity:1;stroke:#ff2aff;stroke-width:1;stroke-opacity:1"
       d="m 257.69541,484.37589 c -9.94465,-2.07108 -16.55383,-4.3892 -22.56286,-7.91373 -3.76672,-2.20933 -7.46315,-4.01695 -8.21429,-4.01695 -0.75114,0 -1.36571,-0.64286 -1.36571,-1.42858 0,-0.78571 -0.69645,-1.42857 -1.54767,-1.42857 -0.85122,0 -3.73272,-2.25 -6.40333,-5 -2.67062,-2.75 -5.61702,-5 -6.54757,-5 -0.93054,0 -1.30039,-0.39151 -0.82187,-0.87003 0.47852,-0.47851 -1.16475,-2.72851 -3.65171,-5 -2.48695,-2.27148 -4.08773,-4.12997 -3.55729,-4.12997 0.53045,0 -0.55318,-1.63754 -2.40806,-3.63898 -1.85487,-2.00145 -4.42577,-5.8586 -5.71309,-8.57144 -1.28733,-2.71284 -2.99123,-4.93243 -3.78645,-4.93243 -0.79523,0 -1.17204,-0.48215 -0.83738,-1.07143 0.33467,-0.58929 -0.58485,-3 -2.04337,-5.35715 -2.72009,-4.39599 -3.16946,-5.30722 -9.86294,-20 -3.36343,-7.38302 -5.88839,-13.87394 -6.39069,-16.42857 -0.39119,-1.98947 -2.47241,-8.19415 -3.59386,-10.71428 -3.94355,-8.86192 -4.05903,-13.52617 -0.70264,-28.3802 5.61368,-24.84388 12.45359,-49.47695 13.73836,-49.47695 0.66989,0 1.59094,1.76786 2.04676,3.92858 0.45583,2.16071 1.75379,6.03966 2.88436,8.61989 1.13057,2.58023 2.05559,5.70699 2.05559,6.94835 0,1.24137 1.19799,4.59456 2.66221,7.45153 3.11884,6.08549 6.82466,14.5856 7.24722,16.62308 0.16295,0.78572 1.85713,3.47497 3.76485,5.97611 1.90771,2.50115 3.46857,5.45509 3.46857,6.56431 0,1.10922 1.28572,3.18032 2.85715,4.60244 1.57143,1.42212 2.85714,3.20232 2.85714,3.956 0,1.70031 13.00522,17.1587 20.10814,23.90114 4.65352,4.41735 5.72199,6.83121 9.16897,20.71429 4.57076,18.40925 12.95047,44.13763 19.30929,59.28571 7.17602,17.0948 7.22744,16.7424 -2.15783,14.78783 z"
       id="path11714"
       inkscape:connector-curvature="0"
       transform="scale(0.26458333)" />
    <path
       style="opacity:1;fill:#ff0000;fill-opacity:1;stroke:#ff2aff;stroke-width:1;stroke-opacity:1"
       d="m 527.22595,483.65718 c 6.60887,-15.32942 16.81294,-44.6934 21.26594,-61.19645 2.81771,-10.44258 3.90393,-12.38563 10.23378,-18.30647 7.13828,-6.67702 21.1126,-23.39815 21.1126,-25.26251 0,-0.55302 1.18444,-2.71187 2.6321,-4.79744 5.00766,-7.21433 17.3679,-32.83204 17.3679,-35.99654 0,-0.77309 0.59593,-2.5219 1.32429,-3.88623 1.12298,-2.10354 2.8223,-6.24945 3.65168,-8.90919 0.8981,-2.88012 4.16496,-13.7793 4.38896,-14.64286 0.15286,-0.58928 0.35828,-2.16428 0.4565,-3.5 0.43393,-5.90149 3.23737,2.00449 9.4728,26.71429 3.66803,14.53571 6.76164,29.64285 6.87468,33.57143 0.20636,7.17183 -4.47874,25.16175 -8.45475,32.46463 -1.16579,2.14126 -2.05118,4.06983 -1.96754,4.28571 0.23104,0.59627 -1.53342,5.57885 -3.75671,10.60841 -1.09445,2.47589 -1.98991,5.45075 -1.98991,6.61079 0,1.16005 -0.96429,2.90947 -2.14286,3.8876 -1.17857,0.97813 -2.14286,2.89872 -2.14286,4.26798 0,1.36926 -1.16836,4.02269 -2.59635,5.89651 -1.428,1.87381 -3.43456,5.49622 -4.45903,8.04979 -1.02447,2.55358 -2.42754,4.64286 -3.11793,4.64286 -0.69039,0 -1.25526,0.87042 -1.25526,1.93426 0,1.06383 -1.60714,3.66838 -3.57143,5.78788 -1.96428,2.1195 -3.57142,4.22895 -3.57142,4.68765 0,0.45871 -1.64027,2.35415 -3.64504,4.21211 -2.00476,1.85796 -3.28974,3.3781 -2.8555,3.3781 0.81824,0 -8.12753,8.8286 -13.38966,13.21429 -1.64978,1.375 -3.63512,2.5 -4.41185,2.5 -0.77673,0 -1.41224,0.52891 -1.41224,1.17534 0,2.2725 -12.80116,7.75304 -22.22688,9.51596 -1.52522,0.28527 -2.77312,0.61875 -2.77312,0.74108 0,0.12229 -3.2975,0.48162 -7.32779,0.79842 l -7.32779,0.57598 z"
       id="path11720"
       inkscape:connector-curvature="0"
       transform="scale(0.26458333)" />
    <path
       style="opacity:1;fill:#ffff00;fill-opacity:1;stroke:#ff2aff;stroke-width:0.26458332;stroke-opacity:1"
       id="path11728"
       sodipodi:type="arc"
       sodipodi:cx="105.45535"
       sodipodi:cy="133.5253"
       sodipodi:rx="15.497024"
       sodipodi:ry="26.64732"
       sodipodi:start="2.143029"
       sodipodi:end="1.0563913"
       d="m 97.063553,155.92754 a 15.497024,26.64732 0 0 1 -6.410445,-30.29165 15.497024,26.64732 0 0 1 15.250262,-18.74677 15.497024,26.64732 0 0 1 14.59466,20.231 15.497024,26.64732 0 0 1 -7.41788,29.60395 l -7.6248,-23.19877 z" />
  </g>
</svg>
